<svg width="720" height="1200" viewBox="0 0 720 1200" fill="none" xmlns="http://www.w3.org/2000/svg">
  <defs>
    <linearGradient id="bg" x1="40" y1="32" x2="680" y2="1168" gradientUnits="userSpaceOnUse">
      <stop stop-color="#0F766E"/>
      <stop offset="0.48" stop-color="#0F172A"/>
      <stop offset="1" stop-color="#020617"/>
    </linearGradient>
    <radialGradient id="glowA" cx="0" cy="0" r="1" gradientUnits="userSpaceOnUse" gradientTransform="translate(540 216) rotate(125.537) scale(454.524 316.214)">
      <stop stop-color="#5EEAD4" stop-opacity="0.58"/>
      <stop offset="1" stop-color="#5EEAD4" stop-opacity="0"/>
    </radialGradient>
    <radialGradient id="glowB" cx="0" cy="0" r="1" gradientUnits="userSpaceOnUse" gradientTransform="translate(210 918) rotate(63.9195) scale(343.641 272.589)">
      <stop stop-color="#BAE6FD" stop-opacity="0.4"/>
      <stop offset="1" stop-color="#BAE6FD" stop-opacity="0"/>
    </radialGradient>
  </defs>
  <rect width="720" height="1200" rx="56" fill="url(#bg)"/>
  <rect x="40" y="40" width="640" height="1120" rx="44" stroke="white" stroke-opacity="0.14" stroke-width="2"/>
  <circle cx="540" cy="216" r="276" fill="url(#glowA)"/>
  <circle cx="210" cy="918" r="232" fill="url(#glowB)"/>
  <g opacity="0.12">
    <path d="M64 170H656" stroke="white" stroke-width="2"/>
    <path d="M64 266H656" stroke="white" stroke-width="2"/>
    <path d="M64 362H656" stroke="white" stroke-width="2"/>
    <path d="M64 458H656" stroke="white" stroke-width="2"/>
    <path d="M64 554H656" stroke="white" stroke-width="2"/>
    <path d="M64 650H656" stroke="white" stroke-width="2"/>
    <path d="M64 746H656" stroke="white" stroke-width="2"/>
    <path d="M64 842H656" stroke="white" stroke-width="2"/>
    <path d="M64 938H656" stroke="white" stroke-width="2"/>
    <path d="M64 1034H656" stroke="white" stroke-width="2"/>
    <path d="M148 96V1104" stroke="white" stroke-width="2"/>
    <path d="M276 96V1104" stroke="white" stroke-width="2"/>
    <path d="M404 96V1104" stroke="white" stroke-width="2"/>
    <path d="M532 96V1104" stroke="white" stroke-width="2"/>
  </g>
  <rect x="116" y="118" width="488" height="80" rx="24" fill="white" fill-opacity="0.1"/>
  <text x="148" y="168" fill="white" font-family="Segoe UI, Arial, sans-serif" font-size="34" font-weight="700" letter-spacing="0.16em">ADVERTIFIED</text>
  <text x="116" y="320" fill="#CCFBF1" font-family="Segoe UI, Arial, sans-serif" font-size="18" font-weight="700" letter-spacing="0.22em">BRAND INTRODUCTION</text>
  <text x="116" y="388" fill="white" font-family="Segoe UI, Arial, sans-serif" font-size="62" font-weight="700">Media buying</text>
  <text x="116" y="462" fill="white" font-family="Segoe UI, Arial, sans-serif" font-size="62" font-weight="700">that feels clear,</text>
  <text x="116" y="536" fill="white" font-family="Segoe UI, Arial, sans-serif" font-size="62" font-weight="700">guided and modern.</text>
  <text x="116" y="630" fill="white" fill-opacity="0.74" font-family="Segoe UI, Arial, sans-serif" font-size="28" font-weight="400">Start with the right package, then unlock the planning</text>
  <text x="116" y="672" fill="white" fill-opacity="0.74" font-family="Segoe UI, Arial, sans-serif" font-size="28" font-weight="400">support needed to build a campaign with confidence.</text>
  <circle cx="360" cy="864" r="92" fill="white" fill-opacity="0.12"/>
  <circle cx="360" cy="864" r="68" fill="white" fill-opacity="0.16"/>
  <path d="M390 864L334 902V826L390 864Z" fill="white"/>
  <text x="244" y="1014" fill="white" font-family="Segoe UI, Arial, sans-serif" font-size="26" font-weight="700" letter-spacing="0.18em">LOAD VIDEO</text>
 </svg>
